PathFileType	4	(X/Y/Z)	C:\Users\IEUser\Desktop\02761_POST\experimental_data\task.trc
DataRate	CameraRate	NumFrames	NumMarkers	Units	OrigDataRate	OrigDataStartFrame	OrigNumFrames
100.000000	100.000000	4	51	mm	100.000000	270	361
Frame#	Time	C7			CLAV			LANK			LASI			LBHD			LELB			LFHD			LFIN			LFMH			LHEE			LKNE			LMED			LMET			LMIF			LPSI			LSHO			LTAD			LTHAP			LTHI			LTIAD			LTIB			LTOE			LTTU			LWRA			LWRB			RANK			RASI			RBAK			RBHD			RELB			RFHD			RFIN			RFMH			RHEE			RKNE			RMED			RMET			RMIF			RPSI			RSHO			RTAD			RTHAP			RTHI			RTIAD			RTIB			RTOE			RTTU			RWRA			RWRB			STRN			T10			
		X1	Y1	Z1	X2	Y2	Z2	X3	Y3	Z3	X4	Y4	Z4	X5	Y5	Z5	X6	Y6	Z6	X7	Y7	Z7	X8	Y8	Z8	X9	Y9	Z9	X10	Y10	Z10	X11	Y11	Z11	X12	Y12	Z12	X13	Y13	Z13	X14	Y14	Z14	X15	Y15	Z15	X16	Y16	Z16	X17	Y17	Z17	X18	Y18	Z18	X19	Y19	Z19	X20	Y20	Z20	X21	Y21	Z21	X22	Y22	Z22	X23	Y23	Z23	X24	Y24	Z24	X25	Y25	Z25	X26	Y26	Z26	X27	Y27	Z27	X28	Y28	Z28	X29	Y29	Z29	X30	Y30	Z30	X31	Y31	Z31	X32	Y32	Z32	X33	Y33	Z33	X34	Y34	Z34	X35	Y35	Z35	X36	Y36	Z36	X37	Y37	Z37	X38	Y38	Z38	X39	Y39	Z39	X40	Y40	Z40	X41	Y41	Z41	X42	Y42	Z42	X43	Y43	Z43	X44	Y44	Z44	X45	Y45	Z45	X46	Y46	Z46	X47	Y47	Z47	X48	Y48	Z48	X49	Y49	Z49	X50	Y50	Z50	X51	Y51	Z51	

271	2.7	613.1693115234376	1317.576049804688	-345.8837890625001	699.3394775390626	1223.377197265625	-316.0876464843751	322.7110290527344	94.1126174926758	-385.8646850585939	668.8720703125001	853.7128906250002	-438.2371826171876	696.0369873046876	1449.921142578125	-389.7035522460939	711.5278930664064	973.3123168945315	-540.0966796875001	812.3876953125002	1405.483764648438	-366.2258911132813	929.5380859375002	829.6409912109377	-404.7019042968751	433.051727294922	36.16830825805665	-319.9587097167969	272.0269775390626	94.87442779541017	-345.5839233398438	501.8898925781251	460.6005859375001	-435.843231201172	345.0446777343751	102.398681640625	-309.6160888671876	404.9335021972657	23.45787239074707	-404.4233398437501	396.7498168945314	82.25904083251955	-362.2802124023438	526.9210815429689	897.8311767578127	-362.4769897460938	664.0814208984376	1259.0556640625	-477.6982727050782	628.0240478515626	568.7648315429689	-394.3302612304689	656.1931152343751	635.4427490234376	-404.3562316894532	545.3651733398439	572.3463134765626	-500.6421813964845	412.0370483398439	180.7277069091797	-373.5193481445313	419.1692199707032	273.2696838378907	-467.046112060547	428.1485595703126	42.05453109741212	-367.9804382324219	508.7792358398439	372.8148193359376	-387.3342590332032	880.0184326171877	869.809265136719	-397.8917236328126	877.556579589844	821.6196899414065	-441.8696899414064	856.330505371094	61.62243652343751	-239.0755767822266	667.0333862304689	846.0550537109377	-222.240707397461	546.9459228515626	1180.1982421875	-237.8116760253907	659.3035888671876	1447.109497070313	-268.1385192871094	623.5885620117189	1009.156005859375	-112.3624649047852	810.6160278320315	1392.74609375	-251.1668395996094	712.6990356445314	736.4426269531251	-69.8794403076172	990.5590820312502	52.5295867919922	-290.6332702636719	818.985778808594	58.63762283325197	-291.0463256835938	767.9962158203126	456.4529113769532	-206.1313171386719	886.0311279296877	93.35617828369142	-306.1449890136719	962.4191894531252	32.70983123779298	-220.4830780029297	934.8292236328127	84.76008605957033	-253.9536437988282	525.2113647460939	895.5522460937502	-275.5641479492188	608.8181152343751	1284.525146484375	-194.7308197021485	781.475769042969	584.3678588867189	-265.4362182617188	730.7922973632814	692.7307739257814	-258.5440368652344	697.3387451171876	558.0507202148439	-150.285400390625	855.7144775390627	264.1642456054688	-257.6463928222657	792.1155395507815	248.5898742675782	-174.4159393310547	980.8953857421877	52.40864562988283	-249.9807128906251	833.1629638671877	394.5879211425782	-251.0654907226563	707.2848510742189	789.8177490234377	-120.9226150512696	686.6993408203126	792.9099121093752	-63.38699340820314	722.0235595703126	1039.121826171875	-308.4870605468751	543.8486938476564	995.2402954101565	-324.9766845703126	
272	2.71	623.7872314453126	1316.130249023438	-344.4763183593751	710.3942871093751	1222.159057617188	-314.9874572753907	324.8708801269532	96.76605224609378	-386.5587158203126	681.5070190429689	851.7203369140627	-437.561004638672	706.3400878906251	1448.779052734375	-388.3252258300782	721.5369262695314	972.188171386719	-539.6596069335939	822.7772216796877	1404.293579101563	-365.3320312500001	939.7487792968752	826.4815063476565	-406.6311035156251	433.4169311523439	36.24132156372071	-320.0432128906251	274.0635070800782	99.23237609863284	-346.7246093750001	511.379119873047	459.9450073242189	-435.4922180175782	347.0924682617188	104.7229309082032	-310.4336547851563	405.249969482422	23.71128082275391	-404.3718566894532	398.6226806640626	83.29029083251955	-362.8333435058594	539.5831298828126	895.847595214844	-361.5583190917969	674.7550659179689	1257.916259765625	-476.634735107422	638.6377563476564	566.9525146484376	-393.899871826172	667.4069213867189	633.4619750976564	-403.8848266601564	556.0585937500001	571.3341674804689	-500.077117919922	415.9043579101564	181.7615814208985	-373.8375854492188	425.6015014648439	274.0410156250001	-467.1878356933595	428.9666748046876	42.28086853027344	-368.1640625000001	516.6552124023439	371.8143005371094	-386.8470458984376	890.871276855469	867.368103027344	-399.3532104492189	887.2718505859377	818.9556274414065	-443.0173339843751	862.0126953125002	58.48741149902345	-245.2848052978516	679.3873291015626	844.3094482421877	-221.4270782470704	558.0969238281251	1177.916259765625	-236.8205718994141	670.0640869140626	1445.744262695313	-266.6573486328126	634.8210449218751	1006.653503417969	-112.0826263427735	821.3641357421877	1391.342529296875	-250.2618560791016	725.7680664062501	734.5709838867189	-70.51852416992189	996.8074340820315	48.32633209228517	-296.3479003906251	824.931823730469	55.31288909912111	-297.2310180664063	776.6895751953127	452.9768066406251	-208.3353271484376	891.984313964844	89.83425903320314	-312.2941284179688	967.4199829101565	30.4856357574463	-224.7539062500001	940.7715454101565	81.47647857666017	-259.8282470703126	537.5468750000001	893.658630371094	-274.8575744628907	619.4213256835939	1282.40283203125	-193.2227020263672	790.840026855469	581.0517578125001	-267.6714477539063	742.1915283203126	690.3900146484376	-258.7869262695313	709.7219238281251	556.1423950195314	-150.5748443603516	863.089538574219	260.4852294921876	-262.0938415527344	799.3509521484377	244.2420501708985	-178.8997497558594	986.735778808594	48.96076965332033	-255.0599517822266	841.1544189453127	390.967742919922	-253.9747314453126	719.7083129882814	787.8366699218752	-121.4945678710938	699.0421752929689	790.6509399414065	-63.94149398803712	733.8627319335939	1037.871704101563	-307.6052246093751	556.3415527343751	993.228210449219	-324.0871276855469	
273	2.72	634.5257568359376	1314.735229492188	-342.9671630859376	721.6185302734376	1221.042114257813	-313.7722473144532	327.4475708007813	99.633903503418	-387.400115966797	694.5214233398439	849.7290649414065	-436.7366027832032	716.7273559570314	1447.734985351563	-386.8331298828126	731.3497314453126	971.048278808594	-539.1495971679689	833.267272949219	1403.214233398438	-364.3170166015626	949.5720825195315	822.6536865234377	-408.922332763672	433.8419494628907	36.33491516113282	-320.1688537597657	276.5030212402344	103.9969863891602	-347.9367980957032	521.7355957031251	459.108856201172	-435.1901245117189	349.4418029785157	107.2537307739258	-311.4811401367188	405.6163330078126	23.97139930725098	-404.3392639160157	400.7727966308595	84.39448547363283	-363.5371398925782	552.5462646484376	894.0205078125002	-360.7263488769532	685.4909057617189	1256.794067382813	-475.4629821777345	650.0003662109376	565.0662841796876	-393.5741271972657	679.2180175781251	631.4794311523439	-403.4305419921876	567.4611816406251	570.2221679687501	-499.4729003906251	420.2003173828126	182.8536834716797	-374.3020019531251	432.6828918457032	274.7671203613282	-467.4305725097657	429.9193725585939	42.50976562500001	-368.4213562011719	525.3911743164064	370.6590270996094	-386.4861450195314	901.479431152344	864.382995605469	-401.0665893554689	896.5659790039065	815.8223876953127	-444.4553222656251	865.4617919921877	55.39426803588869	-251.504135131836	691.8911743164064	842.6140136718752	-220.574935913086	569.3640136718751	1175.627563476563	-235.7496490478516	680.8937377929689	1444.446655273438	-265.0642395019532	646.2401733398439	1004.13330078125	-111.820182800293	832.193054199219	1390.0302734375	-249.2407684326172	739.1705322265626	732.7276000976564	-71.3280487060547	1001.018493652344	44.07293701171876	-301.5447998046876	828.7423095703127	51.73740768432619	-303.4070434570313	785.3687133789065	449.6085815429689	-210.7845916748047	895.8945312500002	85.87767791748048	-318.5343017578126	969.9619750976565	28.55774688720704	-228.3441009521485	944.5274047851565	78.26078033447267	-265.6275329589844	550.1904907226564	891.9517211914065	-274.1680603027344	630.1096801757814	1280.293579101563	-191.6004028320313	800.6150512695315	578.1643066406251	-269.8210144042969	753.6973876953126	688.3762817382814	-259.4137573242188	722.5454101562501	554.5234375000001	-151.0100402832032	869.6043090820315	256.4739074707032	-266.5801696777344	805.1248779296877	239.8628234863282	-183.6832733154297	990.3184814453127	45.63814544677735	-259.5598144531251	849.083679199219	387.169403076172	-256.9028320312501	732.4715576171876	785.9077758789065	-122.2072906494141	711.6583251953126	788.366882324219	-64.6529006958008	746.0101318359376	1036.751831054688	-306.5666503906251	569.1319580078126	991.257019042969	-323.1698608398438	
274	2.73	645.3937988281251	1313.419311523438	-341.3497924804688	733.0167846679689	1220.062255859375	-312.4334411621094	330.5458068847657	102.7536849975586	-388.3951416015626	707.9135131835939	847.777282714844	-435.7212829589845	727.2081909179689	1446.816284179688	-385.2358398437501	740.9646606445314	969.904968261719	-538.5593872070314	843.8864746093752	1402.284301757813	-363.1807861328126	958.9866333007815	818.2006835937502	-411.5726623535157	434.3362426757814	36.44285964965821	-320.3375854492188	279.4878540039063	109.1845016479492	-349.1496887207032	532.9663085937501	458.0969238281251	-434.9512634277345	352.1890258789063	110.0019149780274	-312.7589416503907	406.0276794433595	24.2445297241211	-404.3077697753907	403.2571105957032	85.56443786621095	-364.3941650390626	565.7756347656251	892.4259033203127	-360.0115966796876	696.2738647460939	1255.703125	-474.1679077148439	662.1118774414064	563.1321411132814	-393.3042297363282	691.6167602539064	629.5274658203126	-402.9424438476564	579.5838012695314	569.0140991210939	-498.8312988281251	425.0069580078126	184.0152893066407	-374.9160156250001	440.4035034179689	275.4661865234376	-467.7826538085939	430.9978637695314	42.7079086303711	-368.7518005371094	535.0100097656251	369.3232116699219	-386.2794189453126	911.8227539062502	860.8769531250002	-403.0227966308595	905.4179687500002	812.2474365234377	-446.1836242675782	867.2551269531252	52.58050918579103	-257.3657226562501	704.5188598632814	841.0080566406252	-219.6668090820313	580.7763061523439	1173.360229492188	-234.5728149414063	691.8015136718751	1443.253295898438	-263.3691711425782	657.8313598632814	1001.630615234375	-111.5561065673828	843.1169433593752	1388.860229492188	-248.1049499511719	752.8531494140626	730.9302368164064	-72.30320739746095	1003.713989257813	40.24832916259766	-305.8970642089844	830.8894042968752	48.05437088012697	-309.1532592773438	794.130065917969	446.4389953613282	-213.3890686035157	898.2224121093752	81.68062591552736	-324.5567321777344	970.7202758789065	27.1260166168213	-231.1160888671876	946.6043090820315	75.37707519531251	-271.0942382812501	563.1322631835939	890.4880371093752	-273.4804687500001	640.8960571289064	1278.231201171875	-189.8547668457032	810.8670043945315	575.6784667968751	-271.8460998535157	765.3278808593751	686.5997314453126	-260.4050903320313	735.4312744140626	552.9915161132814	-151.730209350586	875.5028076171877	252.3470611572266	-270.9244384765626	809.6624755859377	235.6684112548829	-188.5758666992188	992.206237792969	42.80810165405274	-263.2479553222657	857.049743652344	383.3317260742188	-259.9175415039063	745.5504760742189	784.0643310546877	-123.0466537475586	724.5145874023439	786.0808105468752	-65.51009368896486	758.4784545898439	1035.79736328125	-305.3601989746094	582.1872558593751	989.3828125000002	-322.2465515136719	
